# xmcd
#
# Track frame offsets: 
#        150
#        14886
#        33366
#        45432
#        72189
#        89846
#        107318
#        133636
#        156900
#        178815
#
# Disc length: 2557 seconds
#
# Revision: 0
# Processed by: cddbd v1.5.2PL0 Copyright (c) Steve Scherf et al.
# Submitted via: ExactAudioCopy v0.95b4
#
DISCID=8509fb0a
DTITLE=Duke Tumatoe - You've Got the Problem
DYEAR=1900
DGENRE=Blues
TTITLE0=You've Got the Problem
TTITLE1=Real Mean Woman
TTITLE2=Don't Ask
TTITLE3=Enough Trouble of My Own
TTITLE4=My Baby is a Nudist
TTITLE5=Bad Day
TTITLE6=Be So Easy
TTITLE7=Mudcat Man
TTITLE8=Kid Stuff
TTITLE9=Moanin' After Blues
EXTD=
EXTT0=
EXTT1=
EXTT2=
EXTT3=
EXTT4=
EXTT5=
EXTT6=
EXTT7=
EXTT8=
EXTT9=
PLAYORDER=
